#!OML:ASF E:\motion texture\Top Level 1\Subject 1\Session 1\male.ASF
:FULLY-SPECIFIED
:DEGREES
619
root -50.4346 17.1938 2.52809 144.616 -82.8032 -137.141
lowerback 2.15893 0.0186911 6.60082
upperback 2.78642 -0.429267 8.35192
thorax 1.72226 -0.361454 4.9842
lowerneck -12.3704 10.5076 3.45202
upperneck 14.8302 14.3996 -4.58177
head 7.15648 6.7127 -0.563551
rclavicle 1.47101e-014 8.26944e-014
rhumerus -22.649 -57.9369 -59.2786
rradius 71.7338
rwrist -50.5033
rhand -24.2634 -46.201
rfingers 7.12502
rthumb 2.223 -76.1691
lclavicle 1.47101e-014 8.26944e-014
lhumerus 3.34052 -38.8019 107.323
lradius 54.4791
lwrist 5.00697
lhand -0.0308422 42.8265
lfingers 7.12502
lthumb 25.5608 71.1315
rfemur -17.1932 -8.02653 21.0767
rtibia 62.6624
rfoot 2.57288 -4.8625
rtoes -5.50067
lfemur -41.2145 3.1713 -9.13319
ltibia 22.5537
lfoot -4.198 4.70502
ltoes -4.93263
620
root -50.5868 17.212 2.52683 139.212 -83.31 -131.959
lowerback 1.94947 0.0597106 6.68016
upperback 2.67415 -0.390324 8.45935
thorax 1.72314 -0.342725 5.05305
lowerneck -12.3704 10.5076 3.45202
upperneck 14.8302 14.3996 -4.58177
head 7.15648 6.7127 -0.563551
rclavicle -3.57812e-015 -7.79236e-014
rhumerus -22.7622 -57.9057 -59.2009
rradius 71.6011
rwrist -50.9698
rhand -23.9905 -46.0909
rfingers 7.12502
rthumb 2.48652 -76.0562
lclavicle -3.57812e-015 -7.79236e-014
lhumerus 3.34052 -38.8019 107.323
lradius 54.4791
lwrist 5.00697
lhand -0.0308422 42.8265
lfingers 7.12502
lthumb 25.5608 71.1315
rfemur -17.5132 -8.34137 21.3318
rtibia 63.758
rfoot 4.79786 -5.47239
rtoes -2.1401
lfemur -41.2145 3.1713 -9.13319
ltibia 22.5537
lfoot -4.198 4.70502
ltoes -4.93263
621
root -50.7409 17.2289 2.52192 132.593 -83.7433 -125.579
lowerback 1.90655 0.0667288 6.69631
upperback 2.49647 -0.371252 8.6126
thorax 1.56296 -0.338572 5.2069
lowerneck -12.3704 10.5076 3.45202
upperneck 14.8302 14.3996 -4.58177
head 7.15648 6.7127 -0.563551
rclavicle 4.77083e-015 -3.81667e-014
rhumerus -22.4956 -57.9354 -59.5299
rradius 71.4018
rwrist -51.0412
rhand -24.2111 -46.0248
rfingers 7.12502
rthumb 2.27344 -75.9924
lclavicle 4.77083e-015 -3.81667e-014
lhumerus 3.34052 -38.8019 107.323
lradius 54.4791
lwrist 5.00697
lhand -0.0308422 42.8265
lfingers 7.12502
lthumb 25.5608 71.1315
rfemur -17.7462 -8.71096 21.647
rtibia 64.6762
rfoot 6.83806 -6.09762
rtoes 0.382712
lfemur -41.2145 3.1713 -9.13319
ltibia 22.5537
lfoot -4.198 4.70502
ltoes -4.93263
622
root -50.8993 17.2493 2.51642 127.892 -84.0037 -121.125
lowerback 1.90655 0.0667288 6.69631
upperback 2.49647 -0.371252 8.6126
thorax 1.56296 -0.338572 5.2069
lowerneck -12.3704 10.5076 3.45202
upperneck 14.8302 14.3996 -4.58177
head 7.15648 6.7127 -0.563551
rclavicle 4.77083e-015 -3.81667e-014
rhumerus -22.4956 -57.9354 -59.5299
rradius 71.4018
rwrist -51.0412
rhand -24.2111 -46.0248
rfingers 7.12502
rthumb 2.27344 -75.9924
lclavicle 4.77083e-015 -3.81667e-014
lhumerus 3.34052 -38.8019 107.323
lradius 54.4791
lwrist 5.00697
lhand -0.0308422 42.8265
lfingers 7.12502
lthumb 25.5608 71.1315
rfemur -17.916 -8.86262 21.827
rtibia 65.4539
rfoot 8.21271 -6.6412
rtoes 3.08981
lfemur -41.2145 3.1713 -9.13319
ltibia 22.5537
lfoot -4.198 4.70502
ltoes -4.93263
623
root -51.039 17.2731 2.50931 118.733 -84.5303 -112.203
lowerback 1.90655 0.0667288 6.69631
upperback 2.49647 -0.371252 8.6126
thorax 1.56296 -0.338572 5.2069
lowerneck -12.3704 10.5076 3.45202
upperneck 14.8302 14.3996 -4.58177
head 7.15648 6.7127 -0.563551
rclavicle 4.77083e-015 -3.81667e-014
rhumerus -22.4956 -57.9354 -59.5299
rradius 71.4018
rwrist -51.0412
rhand -24.2111 -46.0248
rfingers 7.12502
rthumb 2.27344 -75.9924
lclavicle 4.77083e-015 -3.81667e-014
lhumerus 3.34052 -38.8019 107.323
lradius 54.4791
lwrist 5.00697
lhand -0.0308422 42.8265
lfingers 7.12502
lthumb 25.5608 71.1315
rfemur -18.1434 -9.44235 21.9867
rtibia 66.2195
rfoot 8.32064 -7.27632
rtoes 3.76283
lfemur -41.2145 3.1713 -9.13319
ltibia 22.5537
lfoot -4.198 4.70502
ltoes -4.93263
624
root -51.185 17.2965 2.49942 111.132 -84.7179 -104.806
lowerback 1.90655 0.0667288 6.69631
upperback 2.49647 -0.371252 8.6126
thorax 1.56296 -0.338572 5.2069
lowerneck -12.3704 10.5076 3.45202
upperneck 14.8302 14.3996 -4.58177
head 7.15648 6.7127 -0.563551
rclavicle 4.77083e-015 -3.81667e-014
rhumerus -22.4956 -57.9354 -59.5299
rradius 71.4018
rwrist -51.0412
rhand -24.2111 -46.0248
rfingers 7.12502
rthumb 2.27344 -75.9924
lclavicle 4.77083e-015 -3.81667e-014
lhumerus 3.34052 -38.8019 107.323
lradius 54.4791
lwrist 5.00697
lhand -0.0308422 42.8265
lfingers 7.12502
lthumb 25.5608 71.1315
rfemur -18.3828 -9.71571 22.2484
rtibia 66.9005
rfoot 7.8249 -8.02877
rtoes 3.99282
lfemur -41.2145 3.1713 -9.13319
ltibia 22.5537
lfoot -4.198 4.70502
ltoes -4.93263
625
root -51.3232 17.3219 2.4921 102.108 -84.8056 -95.9434
lowerback 1.90655 0.0667288 6.69631
upperback 2.49647 -0.371252 8.6126
thorax 1.56296 -0.338572 5.2069
lowerneck -12.3704 10.5076 3.45202
upperneck 14.8302 14.3996 -4.58177
head 7.15648 6.7127 -0.563551
rclavicle 4.77083e-015 -3.81667e-014
rhumerus -22.4956 -57.9354 -59.5299
rradius 71.4018
rwrist -51.0412
rhand -24.2111 -46.0248
rfingers 7.12502
rthumb 2.27344 -75.9924
lclavicle 4.77083e-015 -3.81667e-014
lhumerus 3.34052 -38.8019 107.323
lradius 54.4791
lwrist 5.00697
lhand -0.0308422 42.8265
lfingers 7.12502
lthumb 25.5608 71.1315
rfemur -18.3828 -9.71571 22.2484
rtibia 66.9005
rfoot 7.8249 -8.02877
rtoes 3.99282
lfemur -41.2145 3.1713 -9.13319
ltibia 22.5537
lfoot -4.198 4.70502
ltoes -4.93263
626
root -51.3232 17.3219 2.4921 102.108 -84.8056 -95.9434
lowerback 1.90655 0.0667288 6.69631
upperback 2.49647 -0.371252 8.6126
thorax 1.56296 -0.338572 5.2069
lowerneck -12.3704 10.5076 3.45202
upperneck 14.8302 14.3996 -4.58177
head 7.15648 6.7127 -0.563551
rclavicle 4.77083e-015 -3.81667e-014
rhumerus -22.4956 -57.9354 -59.5299
rradius 71.4018
rwrist -51.0412
rhand -24.2111 -46.0248
rfingers 7.12502
rthumb 2.27344 -75.9924
lclavicle 4.77083e-015 -3.81667e-014
lhumerus 3.34052 -38.8019 107.323
lradius 54.4791
lwrist 5.00697
lhand -0.0308422 42.8265
lfingers 7.12502
lthumb 25.5608 71.1315
rfemur -18.3828 -9.71571 22.2484
rtibia 66.9005
rfoot 7.8249 -8.02877
rtoes 3.99282
lfemur -41.2145 3.1713 -9.13319
ltibia 22.5537
lfoot -4.198 4.70502
ltoes -4.93263
627
root -51.3232 17.3219 2.4921 102.108 -84.8056 -95.9434
lowerback 1.90655 0.0667288 6.69631
upperback 2.49647 -0.371252 8.6126
thorax 1.56296 -0.338572 5.2069
lowerneck -12.3704 10.5076 3.45202
upperneck 14.8302 14.3996 -4.58177
head 7.15648 6.7127 -0.563551
rclavicle 4.77083e-015 -3.81667e-014
rhumerus -22.4956 -57.9354 -59.5299
rradius 71.4018
rwrist -51.0412
rhand -24.2111 -46.0248
rfingers 7.12502
rthumb 2.27344 -75.9924
lclavicle 4.77083e-015 -3.81667e-014
lhumerus 3.34052 -38.8019 107.323
lradius 54.4791
lwrist 5.00697
lhand -0.0308422 42.8265
lfingers 7.12502
lthumb 25.5608 71.1315
rfemur -18.3828 -9.71571 22.2484
rtibia 66.9005
rfoot 7.8249 -8.02877
rtoes 3.99282
lfemur -41.2145 3.1713 -9.13319
ltibia 22.5537
lfoot -4.198 4.70502
ltoes -4.93263
628
root -51.3232 17.3219 2.4921 102.108 -84.8056 -95.9434
lowerback 1.90655 0.0667288 6.69631
upperback 2.49647 -0.371252 8.6126
thorax 1.56296 -0.338572 5.2069
lowerneck -12.3704 10.5076 3.45202
upperneck 14.8302 14.3996 -4.58177
head 7.15648 6.7127 -0.563551
rclavicle 4.77083e-015 -3.81667e-014
rhumerus -22.4956 -57.9354 -59.5299
rradius 71.4018
rwrist -51.0412
rhand -24.2111 -46.0248
rfingers 7.12502
rthumb 2.27344 -75.9924
lclavicle 4.77083e-015 -3.81667e-014
lhumerus 3.34052 -38.8019 107.323
lradius 54.4791
lwrist 5.00697
lhand -0.0308422 42.8265
lfingers 7.12502
lthumb 25.5608 71.1315
rfemur -18.3828 -9.71571 22.2484
rtibia 66.9005
rfoot 7.8249 -8.02877
rtoes 3.99282
lfemur -41.2145 3.1713 -9.13319
ltibia 22.5537
lfoot -4.198 4.70502
ltoes -4.93263
629
root -51.3232 17.3219 2.4921 102.108 -84.8056 -95.9434
lowerback 1.90655 0.0667288 6.69631
upperback 2.49647 -0.371252 8.6126
thorax 1.56296 -0.338572 5.2069
lowerneck -12.3704 10.5076 3.45202
upperneck 14.8302 14.3996 -4.58177
head 7.15648 6.7127 -0.563551
rclavicle 4.77083e-015 -3.81667e-014
rhumerus -22.4956 -57.9354 -59.5299
rradius 71.4018
rwrist -51.0412
rhand -24.2111 -46.0248
rfingers 7.12502
rthumb 2.27344 -75.9924
lclavicle 4.77083e-015 -3.81667e-014
lhumerus 3.34052 -38.8019 107.323
lradius 54.4791
lwrist 5.00697
lhand -0.0308422 42.8265
lfingers 7.12502
lthumb 25.5608 71.1315
rfemur -18.3828 -9.71571 22.2484
rtibia 66.9005
rfoot 7.8249 -8.02877
rtoes 3.99282
lfemur -41.2145 3.1713 -9.13319
ltibia 22.5537
lfoot -4.198 4.70502
ltoes -4.93263
630
root -51.3232 17.3219 2.4921 102.108 -84.8056 -95.9434
lowerback 1.90655 0.0667288 6.69631
upperback 2.49647 -0.371252 8.6126
thorax 1.56296 -0.338572 5.2069
lowerneck -12.3704 10.5076 3.45202
upperneck 14.8302 14.3996 -4.58177
head 7.15648 6.7127 -0.563551
rclavicle 4.77083e-015 -3.81667e-014
rhumerus -22.4956 -57.9354 -59.5299
rradius 71.4018
rwrist -51.0412
rhand -24.2111 -46.0248
rfingers 7.12502
rthumb 2.27344 -75.9924
lclavicle 4.77083e-015 -3.81667e-014
lhumerus 3.34052 -38.8019 107.323
lradius 54.4791
lwrist 5.00697
lhand -0.0308422 42.8265
lfingers 7.12502
lthumb 25.5608 71.1315
rfemur -18.3828 -9.71571 22.2484
rtibia 66.9005
rfoot 7.8249 -8.02877
rtoes 3.99282
lfemur -41.2145 3.1713 -9.13319
ltibia 22.5537
lfoot -4.198 4.70502
ltoes -4.93263
631
root -51.3232 17.3219 2.4921 102.108 -84.8056 -95.9434
lowerback 1.90655 0.0667288 6.69631
upperback 2.49647 -0.371252 8.6126
thorax 1.56296 -0.338572 5.2069
lowerneck -12.3704 10.5076 3.45202
upperneck 14.8302 14.3996 -4.58177
head 7.15648 6.7127 -0.563551
rclavicle 4.77083e-015 -3.81667e-014
rhumerus -22.4956 -57.9354 -59.5299
rradius 71.4018
rwrist -51.0412
rhand -24.2111 -46.0248
rfingers 7.12502
rthumb 2.27344 -75.9924
lclavicle 4.77083e-015 -3.81667e-014
lhumerus 3.34052 -38.8019 107.323
lradius 54.4791
lwrist 5.00697
lhand -0.0308422 42.8265
lfingers 7.12502
lthumb 25.5608 71.1315
rfemur -18.3828 -9.71571 22.2484
rtibia 66.9005
rfoot 7.8249 -8.02877
rtoes 3.99282
lfemur -41.2145 3.1713 -9.13319
ltibia 22.5537
lfoot -4.198 4.70502
ltoes -4.93263
632
root -51.3232 17.3219 2.4921 102.108 -84.8056 -95.9434
lowerback 1.90655 0.0667288 6.69631
upperback 2.49647 -0.371252 8.6126
thorax 1.56296 -0.338572 5.2069
lowerneck -12.3704 10.5076 3.45202
upperneck 14.8302 14.3996 -4.58177
head 7.15648 6.7127 -0.563551
rclavicle 4.77083e-015 -3.81667e-014
rhumerus -22.4956 -57.9354 -59.5299
rradius 71.4018
rwrist -51.0412
rhand -24.2111 -46.0248
rfingers 7.12502
rthumb 2.27344 -75.9924
lclavicle 4.77083e-015 -3.81667e-014
lhumerus 3.34052 -38.8019 107.323
lradius 54.4791
lwrist 5.00697
lhand -0.0308422 42.8265
lfingers 7.12502
lthumb 25.5608 71.1315
rfemur -18.3828 -9.71571 22.2484
rtibia 66.9005
rfoot 7.8249 -8.02877
rtoes 3.99282
lfemur -41.2145 3.1713 -9.13319
ltibia 22.5537
lfoot -4.198 4.70502
ltoes -4.93263
